# xmcd
#
# Track frame offsets: 
#        150
#        12439
#        28423
#        41243
#        54300
#        66589
#        81687
#        99316
#
# Disc length: 1605 seconds
#
# Revision: 0
# Processed by: cddbd v1.5.1PL0 Copyright (c) Steve Scherf et al.
# Submitted via: ExactAudioCopy v0.95a5
#
DISCID=72064308
DTITLE=Øystein Boogieman Undem - The Blue Groove Is Back
DYEAR=2004
DGENRE=Blues
TTITLE0=The Blue Groove Is Back
TTITLE1=New Orleans Heat
TTITLE2=Jump Mr.Boogie
TTITLE3=The Groove
TTITLE4=Hi Heal Sneakers
TTITLE5=The Mike Boogie Woogie
TTITLE6=Just Another Blue Song
TTITLE7=The Piano
EXTD=
EXTT0=
EXTT1=
EXTT2=
EXTT3=
EXTT4=
EXTT5=
EXTT6=
EXTT7=
PLAYORDER=
